<?xml version="1.0" encoding="UTF-8"?> <svg xmlns="http://www.w3.org/2000/svg" id="Calque_1" data-name="Calque 1" width="111.1812" height="20.8992" viewBox="0 0 111.1812 20.8992"><title>logo-siclem</title><path d="M10.5442,7.08a5.5172,5.5172,0,0,1,1.85,3.5234H10.0446A3.4011,3.4011,0,0,0,8.9514,8.43,3.5629,3.5629,0,0,0,6.4538,7.58a3.08,3.08,0,0,0-2.0654.6348,2.137,2.137,0,0,0-.7427,1.7143,1.7708,1.7708,0,0,0,.4995,1.31,3.1986,3.1986,0,0,0,1.2422.7558,20.4881,20.4881,0,0,0,2.0386.5538,20.0437,20.0437,0,0,1,2.6592.77,4.1644,4.1644,0,0,1,1.728,1.2554,3.5276,3.5276,0,0,1,.7158,2.3217,3.65,3.65,0,0,1-1.3638,2.9434,5.4982,5.4982,0,0,1-3.6313,1.1338,6.956,6.956,0,0,1-4.32-1.2691,5.0586,5.0586,0,0,1-1.9707-3.5371h2.376a3.0917,3.0917,0,0,0,1.1743,2.187,4.2364,4.2364,0,0,0,2.7407.8375,2.849,2.849,0,0,0,1.9844-.6485,2.1867,2.1867,0,0,0,.7153-1.7007,1.8607,1.8607,0,0,0-.5127-1.3769,3.3752,3.3752,0,0,0-1.269-.7832,18.7123,18.7123,0,0,0-2.0791-.5669A20.27,20.27,0,0,1,3.74,13.3581a4.03,4.03,0,0,1-1.6743-1.2016,3.3637,3.3637,0,0,1-.6884-2.2276,3.7281,3.7281,0,0,1,1.3769-3.01A5.6829,5.6829,0,0,1,6.508,5.7707,5.9843,5.9843,0,0,1,10.5442,7.08Z" transform="translate(-1.2429 -0.1008)" style="fill:#222"></path><path d="M18.82.5193a1.9732,1.9732,0,0,1,2.43,0,1.4126,1.4126,0,0,1,.459,1.0937,1.41,1.41,0,0,1-.459,1.0933,1.9736,1.9736,0,0,1-2.43,0,1.4091,1.4091,0,0,1-.459-1.0933A1.4112,1.4112,0,0,1,18.82.5193Zm2.43,5.44V20.7829h-2.457V5.96Z" transform="translate(-1.2429 -0.1008)" style="fill:#222"></path><path d="M39.4206,7.2829a6.4057,6.4057,0,0,1,2.2949,4.05H39.1237a3.7912,3.7912,0,0,0-1.4716-2.497,4.8191,4.8191,0,0,0-2.9834-.9048,4.7694,4.7694,0,0,0-2.3623.5942,4.3188,4.3188,0,0,0-1.7149,1.8223,6.4611,6.4611,0,0,0-.6479,3.0376,6.4588,6.4588,0,0,0,.6479,3.0376,4.3133,4.3133,0,0,0,1.7149,1.8222,5.1655,5.1655,0,0,0,5.3457-.3237A3.8414,3.8414,0,0,0,39.1237,15.41h2.5918a6.3669,6.3669,0,0,1-2.2949,4.0635,7.257,7.257,0,0,1-4.6977,1.4985,7.6285,7.6285,0,0,1-3.78-.918,6.4844,6.4844,0,0,1-2.5786-2.6323,8.3348,8.3348,0,0,1-.9312-4.0366,8.4165,8.4165,0,0,1,.9312-4.05,6.4717,6.4717,0,0,1,2.5786-2.646,7.6392,7.6392,0,0,1,3.78-.918A7.2152,7.2152,0,0,1,39.4206,7.2829Z" transform="translate(-1.2429 -0.1008)" style="fill:#222"></path><path d="M50.3557.8029v19.98H47.8986V.8029Z" transform="translate(-1.2429 -0.1008)" style="fill:#222"></path><path d="M70.7937,13.8982H58.9406a5.1963,5.1963,0,0,0,1.4454,3.8066,4.7092,4.7092,0,0,0,3.3339,1.269,4.8166,4.8166,0,0,0,2.9834-.9043A3.7386,3.7386,0,0,0,68.175,15.653h2.6187a6.1854,6.1854,0,0,1-3.6177,4.6441,7.9983,7.9983,0,0,1-3.3477.6748,7.6271,7.6271,0,0,1-3.78-.918A6.4866,6.4866,0,0,1,57.47,17.4216a8.3293,8.3293,0,0,1-.9316-4.0366,8.4108,8.4108,0,0,1,.9316-4.05,6.4739,6.4739,0,0,1,2.5782-2.646,7.6377,7.6377,0,0,1,3.78-.918,7.4714,7.4714,0,0,1,3.7666.918,6.3308,6.3308,0,0,1,2.4571,2.457,6.9288,6.9288,0,0,1,.85,3.4024A7.3808,7.3808,0,0,1,70.7937,13.8982ZM67.8781,9.9558a3.9529,3.9529,0,0,0-1.7011-1.647,5.1789,5.1789,0,0,0-2.3487-.54A4.86,4.86,0,0,0,60.426,9.0246,5.061,5.061,0,0,0,58.9406,12.71h9.4776A5.0454,5.0454,0,0,0,67.8781,9.9558Z" transform="translate(-1.2429 -0.1008)" style="fill:#222"></path><path d="M99.48,7.3777a6.6869,6.6869,0,0,1,1.58,4.7924v8.6128H98.6032V12.386a4.78,4.78,0,0,0-1.0664-3.3482,3.7835,3.7835,0,0,0-2.93-1.1606A4.0249,4.0249,0,0,0,91.489,9.1594a5.3971,5.3971,0,0,0-1.1748,3.7666v7.8569H87.8571V12.386a4.7423,4.7423,0,0,0-1.08-3.3482A3.792,3.792,0,0,0,83.861,7.8772a4.0589,4.0589,0,0,0-3.1455,1.2822,5.3971,5.3971,0,0,0-1.1748,3.7666v7.8569h-2.457V5.96h2.457v3.375a4.8183,4.8183,0,0,1,1.9307-2.6861,6.0275,6.0275,0,0,1,6.48.0269,5.22,5.22,0,0,1,1.9843,2.8213,5.3576,5.3576,0,0,1,2.0791-2.7944,5.7462,5.7462,0,0,1,3.294-.9854A5.4878,5.4878,0,0,1,99.48,7.3777Z" transform="translate(-1.2429 -0.1008)" style="fill:#222"></path><circle cx="108.6924" cy="18.4104" r="2.4888" style="fill:#2efcff"></circle></svg> 